# xmcd
#
# Track frame offsets:
#	150
#	13813
#	24531
#	37796
#	52335
#	66417
#	81701
#	95808
#	109225
#	125647
#	138692
#	153462
#	166533
#	179962
#	193355
#	208951
#
# Disc length: 2967
#
# Revision: 3
# Processed by: cddbd v1.5.1PL0 Copyright (c) Steve Scherf et al.
# Submitted via: CDex 1.51
# Normalized: r2:TDELIM( - )
#
DISCID=010b9510
DTITLE=Various Artist - Worried Life Blues
DYEAR=2003
DGENRE=Blues
TTITLE0=Sonny Boy Williamson - Good Morning, School Girl
TTITLE1=Arthur Crudup - My Baby Left Me
TTITLE2=Big Maceo - Worried Life Blues
TTITLE3=S. Louis Jimmy - Going Down Slow
TTITLE4=Memphis Slim - Grinder Man Blues
TTITLE5=Big Joe Williams - Baby, Please Don't Go
TTITLE6=Leadbelly - The Midnight Special
TTITLE7=Tampa Red - Sweet Little Angel
TTITLE8=Tommy Johnson - Canned Heat Blues
TTITLE9=Robert Petway - Catfish Blues
TTITLE10=Alberta Hunter - Beale Street Blues
TTITLE11=Big Bill Broonzy - Keep Your Hands Off Her
TTITLE12=Lil Green - Why Don't You Do Right
TTITLE13=Sleepy John Estes - The Girl I Love, She Got Long, Curly Hair
TTITLE14=Bessie Smith - Down Hearted Blues
TTITLE15=Johnny Moore's Three Blazers - How Blue Can You Get (Downhearted)
EXTD=YEAR: 2003
EXTT0=
EXTT1=
EXTT2=
EXTT3=
EXTT4=
EXTT5=
EXTT6=
EXTT7=
EXTT8=
EXTT9=
EXTT10=
EXTT11=
EXTT12=
EXTT13=
EXTT14=
EXTT15=
PLAYORDER=
